HIERARCHY
ROOT Hips
{
    OFFSET 0.000000 0.000000 0.000000
    CHANNELS 6 Xposition Yposition Zposition Zrotation Xrotation Yrotation
    JOINT Spine
    {
        OFFSET -0.000000 7.236184 0.000000
        CHANNELS 3 Zrotation Xrotation Yrotation
        JOINT Spine1
        {
            OFFSET -0.000000 20.420147 0.000000
            CHANNELS 3 Zrotation Xrotation Yrotation
            JOINT Neck
            {
                OFFSET -0.000000 20.336288 1.848754
                CHANNELS 3 Zrotation Xrotation Yrotation
                JOINT Head
                {
                    OFFSET -0.000000 12.354461 -1.764923
                    CHANNELS 3 Zrotation Xrotation Yrotation
                    End Site
                    {
                        OFFSET -0.000000 22.061537 0.000000
                    }
                }
            }
            JOINT LeftShoulder
            {
                OFFSET 3.573296 18.396038 -0.314103
                CHANNELS 3 Zrotation Xrotation Yrotation
                JOINT LeftArm
                {
                    OFFSET 10.880760 0.000000 0.000000
                    CHANNELS 3 Zrotation Xrotation Yrotation
                    JOINT LeftForeArm
                    {
                        OFFSET 27.185530 0.000000 0.000000
                        CHANNELS 3 Zrotation Xrotation Yrotation
                        JOINT LeftHand
                        {
                            OFFSET 27.825975 0.000000 0.000000
                            CHANNELS 3 Zrotation Xrotation Yrotation
                            End Site
                            {
                                OFFSET 13.236923 0.000000 0.000000
                            }
                        }
                    }
                }
            }
            JOINT RightShoulder
            {
                OFFSET -3.474926 18.396038 -0.314103
                CHANNELS 3 Zrotation Xrotation Yrotation
                JOINT RightArm
                {
                    OFFSET -10.880760 0.000000 0.000000
                    CHANNELS 3 Zrotation Xrotation Yrotation
                    JOINT RightForeArm
                    {
                        OFFSET -27.185530 0.000000 0.000000
                        CHANNELS 3 Zrotation Xrotation Yrotation
                        JOINT RightHand
                        {
                            OFFSET -27.825975 0.000000 0.000000
                            CHANNELS 3 Zrotation Xrotation Yrotation
                            End Site
                            {
                                OFFSET -13.236923 0.000000 0.000000
                            }
                        }
                    }
                }
            }
        }
    }
    JOINT LeftUpLeg
    {
        OFFSET 8.824615 0.000000 0.000000
        CHANNELS 3 Zrotation Xrotation Yrotation
        JOINT LeftLeg
        {
            OFFSET -0.000000 -35.111282 0.000000
            CHANNELS 3 Zrotation Xrotation Yrotation
            JOINT LeftFoot
            {
                OFFSET -0.000000 -42.324711 0.000000
                CHANNELS 3 Zrotation Xrotation Yrotation
                JOINT LeftToeBase
                {
                    OFFSET -0.000000 -5.735999 13.236923
                    CHANNELS 3 Zrotation Xrotation Yrotation
                    End Site
                    {
                        OFFSET -0.000000 0.000000 3.529846
                    }
                }
            }
        }
    }
    JOINT RightUpLeg
    {
        OFFSET -8.824615 0.000000 0.000000
        CHANNELS 3 Zrotation Xrotation Yrotation
        JOINT RightLeg
        {
            OFFSET -0.000000 -35.111282 0.000000
            CHANNELS 3 Zrotation Xrotation Yrotation
            JOINT RightFoot
            {
                OFFSET -0.000000 -42.324711 0.000000
                CHANNELS 3 Zrotation Xrotation Yrotation
                JOINT RightToeBase
                {
                    OFFSET -0.000000 -5.735999 13.236923
                    CHANNELS 3 Zrotation Xrotation Yrotation
                    End Site
                    {
                        OFFSET -0.000000 0.000000 3.529846
                    }
                }
            }
        }
    }
}
MOTION
Frames:    11
Frame Time:    0.008333
-4.752478    83.663887    100.547234    0.148844    -7.411893    -175.467316    -0.394707    -13.699417    0.253579    2.216017    6.008862    0.184699    1.798604    7.666541    -1.114539    3.573300    -14.504254    -0.354403    -2.796773    17.763493    -2.166941    -41.646660    41.482834    -40.481144    10.460423    -6.438115    -49.575005    17.358833    -2.106357    -3.287894    7.816995    18.243641    -4.597102    33.580845    43.085159    39.341965    -10.901441    -14.046790    64.661575    -14.128483    -7.403691    1.322145    5.257082    -8.074425    -0.976709    -0.453144    9.509190    0.148037    -5.667515    -7.007630    -9.328655    -0.351973    -0.223418    0.390307    -4.100325    -2.948657    -0.824884    2.174418    2.356865    2.984117    -0.407308    -3.834305    -10.152207    -2.128073    -0.070998    2.301857    
-4.752379    83.666763    100.597504    0.109622    -7.480747    -175.476044    -0.472254    -13.663325    0.279433    2.232741    5.984645    0.219271    1.771267    7.660607    -1.151114    3.616864    -14.643645    -0.374568    -2.751642    17.688980    -2.193638    -41.639515    41.326920    -40.454906    10.536220    -6.638811    -50.187672    17.285849    -2.184824    -3.175194    7.783600    18.196472    -4.507450    33.477074    42.861500    39.466385    -10.983663    -14.209132    65.237076    -14.206607    -7.428006    1.217641    5.200063    -8.201018    -0.979742    -0.435089    9.548315    0.237154    -5.685371    -6.978940    -9.404072    -0.350262    -0.211645    0.388402    -4.156025    -3.057118    -0.874013    2.185124    2.369717    3.012366    -0.399423    -3.817852    -10.133787    -2.130819    -0.061956    2.304800    
-4.752273    83.669670    100.646423    0.071668    -7.547257    -175.484146    -0.547370    -13.627633    0.304429    2.248659    5.961349    0.252756    1.744440    7.654618    -1.186674    3.659593    -14.778915    -0.393934    -2.707608    17.616562    -2.219851    -41.633076    41.175350    -40.428635    10.610118    -6.837606    -50.789478    17.217035    -2.262331    -3.061584    7.750493    18.150101    -4.419671    33.377190    42.642975    39.586830    -11.064679    -14.372212    65.799675    -14.282825    -7.454212    1.115821    5.144715    -8.324150    -0.982303    -0.417281    9.586839    0.323694    -5.702927    -6.950888    -9.478223    -0.348594    -0.200503    0.386544    -4.209826    -3.162112    -0.922264    2.195256    2.382111    3.039469    -0.391633    -3.801810    -10.115491    -2.133492    -0.053522    2.307663    
-4.752140    83.672646    100.693306    0.035725    -7.609925    -175.491241    -0.618676    -13.592372    0.328176    2.263197    5.939810    0.284587    1.718834    7.648078    -1.220542    3.700475    -14.907482    -0.412308    -2.665205    17.547134    -2.245195    -41.628113    41.030380    -40.401760    10.683850    -7.032442    -51.374958    17.154737    -2.337117    -2.949176    7.718366    18.104853    -4.334713    33.281715    42.432384    39.702648    -11.143519    -14.534154    66.345268    -14.357853    -7.481744    1.016942    5.091865    -8.441806    -0.984275    -0.399646    9.624507    0.407252    -5.720335    -6.923717    -9.551342    -0.346932    -0.190616    0.384694    -4.260655    -3.261429    -0.968959    2.204548    2.393767    3.065055    -0.384078    -3.786508    -10.097825    -2.136087    -0.044969    2.310442    
-4.751976    83.675941    100.740837    -0.000209    -7.671872    -175.497421    -0.690006    -13.555036    0.351975    2.276745    5.919193    0.316431    1.692972    7.640877    -1.254528    3.742104    -15.036979    -0.430425    -2.621769    17.476751    -2.271682    -41.625423    40.883709    -40.371277    10.764547    -7.235757    -51.980862    17.097389    -2.412954    -2.831537    7.685173    18.057537    -4.246916    33.185421    42.217812    39.820995    -11.225500    -14.705247    66.909103    -14.437267    -7.511970    0.913727    5.038547    -8.560457    -0.985702    -0.381150    9.663697    0.492296    -5.738492    -6.895888    -9.627644    -0.345130    -0.181806    0.382690    -4.311153    -3.360301    -1.017017    2.213351    2.405097    3.089357    -0.376202    -3.770859    -10.078509    -2.138732    -0.036852    2.313278    
-4.751749    83.679390    100.786003    -0.033616    -7.728508    -175.502167    -0.756517    -13.517010    0.374394    2.288306    5.900726    0.346077    1.668324    7.632843    -1.286306    3.782048    -15.158354    -0.447027    -2.580092    17.410305    -2.297474    -41.625111    40.744774    -40.339390    10.848743    -7.435960    -52.570885    17.050087    -2.485076    -2.716333    7.652975    18.011332    -4.161637    33.093582    42.012310    39.935802    -11.305629    -14.875154    67.458328    -14.516835    -7.542715    0.811661    4.988384    -8.672066    -0.987119    -0.363027    9.702050    0.573963    -5.756599    -6.869082    -9.702391    -0.343284    -0.175080    0.380638    -4.357796    -3.451705    -1.062748    2.220949    2.415486    3.111280    -0.368164    -3.756135    -10.059909    -2.141266    -0.029287    2.315994    
-4.751462    83.683090    100.829575    -0.065207    -7.781034    -175.505493    -0.819393    -13.478115    0.395459    2.297856    5.884441    0.374285    1.644810    7.623739    -1.316277    3.820469    -15.273296    -0.462321    -2.539302    17.346624    -2.323284    -41.628086    40.611500    -40.304966    10.938302    -7.636381    -53.154480    17.012983    -2.554683    -2.602509    7.621424    17.965057    -4.077524    33.005058    41.813145    40.049026    -11.385599    -15.046077    68.002655    -14.598223    -7.573579    0.708845    4.940241    -8.778755    -0.988272    -0.344697    9.740296    0.652482    -5.774915    -6.843013    -9.776042    -0.341319    -0.170620    0.378456    -4.401463    -3.537515    -1.106564    2.227464    2.425117    3.130213    -0.360487    -3.741949    -10.041158    -2.143743    -0.022312    2.318651    
-4.751097    83.686974    100.871109    -0.094800    -7.828840    -175.507523    -0.878189    -13.438586    0.415239    2.305415    5.870528    0.400513    1.622677    7.613703    -1.343957    3.856802    -15.380632    -0.476180    -2.500171    17.286568    -2.348798    -41.633831    40.485268    -40.268871    11.032264    -7.835671    -53.725853    16.986950    -2.621719    -2.491777    7.590754    17.918966    -3.995152    32.920723    41.622356    40.160038    -11.465227    -15.216075    68.537468    -14.680079    -7.603528    0.606247    4.894521    -8.879231    -0.989652    -0.326532    9.777920    0.726512    -5.793045    -6.818085    -9.846651    -0.339172    -0.169004    0.376075    -4.441851    -3.616928    -1.147309    2.232834    2.434166    3.145838    -0.352382    -3.728709    -10.022850    -2.146118    -0.016234    2.321200    
-4.750589    83.691170    100.911888    -0.123294    -7.873302    -175.508240    -0.934712    -13.396995    0.434060    2.311134    5.858411    0.425623    1.601158    7.602443    -1.370137    3.892342    -15.483108    -0.488773    -2.461349    17.228674    -2.374868    -41.643097    40.362591    -40.230099    11.133368    -8.040447    -54.301659    16.971386    -2.688943    -2.381804    7.560303    17.872137    -3.912281    32.837894    41.433792    40.273262    -11.547402    -15.389261    69.079292    -14.764532    -7.631979    0.501127    4.849869    -8.976394    -0.991707    -0.308027    9.815992    0.797716    -5.811529    -6.793622    -9.915467    -0.336834    -0.170037    0.373484    -4.480154    -3.692415    -1.185402    2.237235    2.443219    3.158661    -0.343990    -3.716193    -10.005331    -2.148448    -0.010821    2.323703    
-4.749885    83.695480    100.950661    -0.149809    -7.913103    -175.507782    -0.987293    -13.354731    0.451503    2.314892    5.848515    0.448797    1.581237    7.590408    -1.393881    3.925484    -15.577616    -0.499834    -2.424149    17.175203    -2.400630    -41.655025    40.247295    -40.191040    11.237723    -8.244929    -54.862976    16.966145    -2.755369    -2.276560    7.531422    17.826046    -3.831419    32.758999    41.253391    40.385582    -11.630745    -15.559824    69.610741    -14.847800    -7.656930    0.397594    4.807852    -9.067077    -0.994418    -0.289985    9.853109    0.863189    -5.829526    -6.770496    -9.979351    -0.334199    -0.174054    0.370564    -4.515095    -3.761990    -1.219149    2.240544    2.452391    3.167771    -0.336136    -3.704942    -9.989010    -2.150762    -0.005893    2.326190    
-4.748960    83.699921    100.987694    -0.174797    -7.948990    -175.506348    -1.036890    -13.311930    0.467509    2.317430    5.840499    0.470245    1.562034    7.577546    -1.415363    3.956978    -15.664392    -0.509333    -2.388618    17.125696    -2.426062    -41.669518    40.139622    -40.152180    11.344734    -8.450074    -55.410473    16.969646    -2.822108    -2.176296    7.503317    17.780752    -3.752427    32.684326    41.080322    40.498001    -11.716265    -15.727104    70.132774    -14.928948    -7.676999    0.296357    4.767889    -9.152195    -0.997546    -0.272130    9.889359    0.922695    -5.847316    -6.748618    -10.038183    -0.331387    -0.180951    0.367451    -4.547337    -3.826817    -1.248073    2.242935    2.462261    3.174033    -0.328352    -3.695156    -9.975116    -2.152954    -0.002111    2.328549    
